<svg width="165" height="40" viewBox="0 0 165 40" fill="none" xmlns="http://www.w3.org/2000/svg">
<path d="M0.441406 39V12.7305H7.93652V16.417H8.69336L6.93555 18.2725C7.32617 17.4587 7.92025 16.596 8.71777 15.6846C9.5153 14.7731 10.5163 13.9919 11.7207 13.3408C12.9414 12.6735 14.3737 12.3398 16.0176 12.3398C16.7012 12.3398 17.3034 12.3968 17.8242 12.5107C18.3613 12.6247 18.752 12.7467 18.9961 12.877L15.8955 20.25C15.7327 20.1686 15.4398 20.0791 15.0166 19.9814C14.6097 19.8838 14.154 19.835 13.6494 19.835C13.0309 19.835 12.3962 19.9489 11.7451 20.1768C11.1104 20.3883 10.5163 20.7301 9.96289 21.2021C9.42578 21.6742 8.98633 22.2682 8.64453 22.9844C8.31901 23.6842 8.15625 24.5225 8.15625 25.499V39H0.441406ZM32.6924 39.3906C29.8604 39.3906 27.4027 38.821 25.3193 37.6816C23.236 36.526 21.6247 34.9391 20.4854 32.9209C19.346 30.8864 18.7764 28.5589 18.7764 25.9385C18.7764 23.1715 19.3704 20.779 20.5586 18.7607C21.7467 16.7262 23.3255 15.1556 25.2949 14.0488C27.2643 12.9258 29.4209 12.3643 31.7646 12.3643C34.027 12.3643 36.0697 12.8851 37.8926 13.9268C39.7318 14.9684 41.1885 16.4089 42.2627 18.248C43.3369 20.0872 43.874 22.2275 43.874 24.6689C43.874 25.32 43.8333 25.9629 43.752 26.5977C43.6868 27.2324 43.5973 27.8184 43.4834 28.3555H24.6846V23.5215H36.7695C36.7695 22.4635 36.5498 21.5521 36.1104 20.7871C35.6709 20.0059 35.0687 19.4118 34.3037 19.0049C33.5387 18.598 32.6598 18.3945 31.667 18.3945C30.3486 18.3945 29.2256 18.7201 28.2979 19.3711C27.3701 20.0059 26.654 20.8766 26.1494 21.9834C25.6611 23.0902 25.417 24.3271 25.417 25.6943C25.417 27.208 25.7181 28.5345 26.3203 29.6738C26.9225 30.8132 27.7607 31.7002 28.835 32.335C29.9255 32.9535 31.1787 33.2627 32.5947 33.2627C33.3923 33.2627 34.1979 33.1732 35.0117 32.9941C35.8255 32.8151 36.5742 32.5872 37.2578 32.3105C37.9414 32.0176 38.4867 31.7083 38.8936 31.3828L41.2861 37.1445C40.2933 37.7956 39.04 38.3327 37.5264 38.7559C36.029 39.179 34.4176 39.3906 32.6924 39.3906ZM72.6582 39.3906C71.4538 39.0163 70.4284 38.6094 69.582 38.1699C68.752 37.7142 68.0846 37.2178 67.5801 36.6807C67.0918 36.1273 66.7663 35.5332 66.6035 34.8984L67.2383 35.3379H64.9922L66.0908 32.2373V17.5889L64.8701 14.8789H65.5537V1.40234H73.2686V29.918C73.2686 30.8783 73.4313 31.5537 73.7568 31.9443C74.0824 32.335 74.6195 32.6686 75.3682 32.9453L72.6582 39.3906ZM58.1807 39.3906C56.7809 39.3906 55.3975 39.1139 54.0303 38.5605C52.6631 38.0072 51.4261 37.1771 50.3193 36.0703C49.2126 34.9635 48.3337 33.5719 47.6826 31.8955C47.0316 30.2028 46.7223 28.2171 46.7549 25.9385C46.7061 22.9274 47.2432 20.4128 48.3662 18.3945C49.4893 16.3763 50.9541 14.8545 52.7607 13.8291C54.5674 12.8037 56.4554 12.291 58.4248 12.291C60.6546 12.291 62.624 12.8932 64.333 14.0977C66.0583 15.3021 67.4092 16.9134 68.3857 18.9316C69.3623 20.9336 69.8587 23.1634 69.875 25.6211C69.8587 28.1439 69.3379 30.4469 68.3125 32.5303C67.2871 34.6136 65.8955 36.2819 64.1377 37.5352C62.3799 38.7721 60.3942 39.3906 58.1807 39.3906ZM59.9873 32.9453C61.1266 32.929 62.1357 32.6279 63.0146 32.042C63.9098 31.4561 64.6097 30.626 65.1143 29.5518C65.6188 28.4775 65.8792 27.2243 65.8955 25.792C65.8792 24.3109 65.6188 23.0495 65.1143 22.0078C64.6097 20.9499 63.9261 20.1442 63.0635 19.5908C62.2008 19.0374 61.2243 18.7689 60.1338 18.7852C58.9782 18.7689 57.9528 19.0456 57.0576 19.6152C56.1787 20.1686 55.487 20.9743 54.9824 22.0322C54.4779 23.0739 54.2337 24.3271 54.25 25.792C54.2337 27.2243 54.4616 28.4775 54.9336 29.5518C55.4219 30.626 56.1055 31.4561 56.9844 32.042C57.8633 32.6279 58.8643 32.929 59.9873 32.9453ZM103.566 39.3906C102.362 39.0163 101.337 38.6094 100.49 38.1699C99.6602 37.7142 98.9928 37.2178 98.4883 36.6807C98 36.1273 97.6745 35.5332 97.5117 34.8984L98.1465 35.3379H95.9004L96.999 32.2373V17.5889L95.7783 14.8789H96.4619V1.40234H104.177V29.918C104.177 30.8783 104.34 31.5537 104.665 31.9443C104.991 32.335 105.528 32.6686 106.276 32.9453L103.566 39.3906ZM89.0889 39.3906C87.6891 39.3906 86.3057 39.1139 84.9385 38.5605C83.5713 38.0072 82.3343 37.1771 81.2275 36.0703C80.1208 34.9635 79.2419 33.5719 78.5908 31.8955C77.9398 30.2028 77.6305 28.2171 77.6631 25.9385C77.6143 22.9274 78.1514 20.4128 79.2744 18.3945C80.3975 16.3763 81.8623 14.8545 83.6689 13.8291C85.4756 12.8037 87.3636 12.291 89.333 12.291C91.5628 12.291 93.5322 12.8932 95.2412 14.0977C96.9665 15.3021 98.3174 16.9134 99.2939 18.9316C100.271 20.9336 100.767 23.1634 100.783 25.6211C100.767 28.1439 100.246 30.4469 99.2207 32.5303C98.1953 34.6136 96.8037 36.2819 95.0459 37.5352C93.2881 38.7721 91.3024 39.3906 89.0889 39.3906ZM90.8955 32.9453C92.0348 32.929 93.0439 32.6279 93.9229 32.042C94.818 31.4561 95.5179 30.626 96.0225 29.5518C96.527 28.4775 96.7874 27.2243 96.8037 25.792C96.7874 24.3109 96.527 23.0495 96.0225 22.0078C95.5179 20.9499 94.8343 20.1442 93.9717 19.5908C93.109 19.0374 92.1325 18.7689 91.042 18.7852C89.8864 18.7689 88.861 19.0456 87.9658 19.6152C87.0869 20.1686 86.3952 20.9743 85.8906 22.0322C85.3861 23.0739 85.1419 24.3271 85.1582 25.792C85.1419 27.2243 85.3698 28.4775 85.8418 29.5518C86.3301 30.626 87.0137 31.4561 87.8926 32.042C88.7715 32.6279 89.7725 32.929 90.8955 32.9453ZM110.183 39V12.7305H117.897V39H110.183ZM114.064 9.72754C112.746 9.72754 111.631 9.27181 110.72 8.36035C109.808 7.44889 109.353 6.34212 109.353 5.04004C109.353 3.7054 109.808 2.59049 110.72 1.69531C111.631 0.783854 112.746 0.328125 114.064 0.328125C115.383 0.328125 116.49 0.783854 117.385 1.69531C118.296 2.59049 118.752 3.7054 118.752 5.04004C118.752 6.34212 118.296 7.44889 117.385 8.36035C116.49 9.27181 115.383 9.72754 114.064 9.72754ZM134.792 39.3906C131.553 39.3906 129.144 38.4954 127.565 36.7051C125.987 34.8984 125.197 32.5872 125.197 29.7715V5.16211H132.912V29.5762C132.912 30.6992 133.181 31.513 133.718 32.0176C134.271 32.5059 134.947 32.75 135.744 32.75C136.118 32.75 136.485 32.7012 136.843 32.6035C137.201 32.5059 137.518 32.3838 137.795 32.2373L140.285 38.3164C139.553 38.6745 138.698 38.943 137.722 39.1221C136.761 39.3011 135.785 39.3906 134.792 39.3906ZM120.803 19.127V12.7305H138.991V19.127H120.803ZM141.75 39V37.4619L152.883 19.5664V19.3711H142.604V12.7305H164.04V14.3662L152.907 32.1641V32.3594H164.064V39H141.75Z" fill="#FF4500"/>
</svg>
